<svg xmlns="http://www.w3.org/2000/svg" xmlns:xlink="http://www.w3.org/1999/xlink" width="200" height="200" viewBox="0 0 200 200">
  <defs>
    <clipPath id="clip-path">
      <rect id="Rectangle_679" data-name="Rectangle 679" width="146.393" height="200" fill="none"/>
    </clipPath>
  </defs>
  <g id="Group_245" data-name="Group 245" transform="translate(-4801 -2639)">
    <rect id="Rectangle_678" data-name="Rectangle 678" width="200" height="200" transform="translate(4801 2639)" fill="none"/>
    <g id="Group_244" data-name="Group 244" transform="translate(4848 2639)">
      <g id="Group_243" data-name="Group 243" clip-path="url(#clip-path)">
        <path id="Path_759" data-name="Path 759" d="M1,128.276V14.223A13.222,13.222,0,0,1,14.223,1h78.27a13.222,13.222,0,0,1,13.223,13.223V50.892" transform="translate(-0.139 -0.139)" fill="none" stroke="#60e07e" stroke-linecap="round" stroke-linejoin="round" stroke-width="2"/>
        <path id="Path_760" data-name="Path 760" d="M111.118,58.926c-24.166,0-43.756,18.41-43.756,41.121,0,18.8,13.429,34.659,31.764,39.559,0,0,7.138,2.522,20.837,0,19.907-3.663,34.911-17.806,34.911-35.846,0-20.618-19.59-37.332-43.756-37.332" transform="translate(-9.343 -8.173)" fill="none" stroke="#60e07e" stroke-linecap="round" stroke-linejoin="round" stroke-width="2"/>
        <path id="Path_761" data-name="Path 761" d="M113.69,67.638c-13.024,0-30.1,12.557-26.057,27.16,2.406,8.7,11.7,12.755,19.933,13.7a48.369,48.369,0,0,0,22.492-2.876,12.662,12.662,0,0,0,4.568-2.807,5.513,5.513,0,0,0,1.565-4.939c-.792-3.222-5.22-4.311-8.191-2.835s-4.743,4.563-6.237,7.525c-4.695,9.314-8.373,19.112-13.026,28.447s-7.8,18.288-19,21.973c8.194,2.473,21.609.195,27.912-6.4v17.358" transform="translate(-12.07 -9.381)" fill="none" stroke="#60e07e" stroke-linecap="round" stroke-linejoin="round" stroke-width="2"/>
        <path id="Path_762" data-name="Path 762" d="M118.164,58.926q1.915,0,3.793.12" transform="translate(-16.388 -8.173)" fill="none" stroke="#60e07e" stroke-linecap="round" stroke-linejoin="round" stroke-width="2"/>
        <path id="Path_763" data-name="Path 763" d="M89.955,12.27H65.565c-2.949,0-5.872-.037-8.6,1.134a3.365,3.365,0,0,0-2.272,3.019,2.733,2.733,0,0,0,2.446,2.72c1.972,0,2.373-1.929,2.373-2.72,0-2.045-1.891-4.3-11.747-4.3-2.236,0-17.014.054-20.018.046" transform="translate(-3.848 -1.682)" fill="none" stroke="#60e07e" stroke-linecap="round" stroke-linejoin="round" stroke-width="2"/>
        <path id="Path_764" data-name="Path 764" d="M10.638,132.052V174.56a5.167,5.167,0,0,1-4.819,4.826A5.167,5.167,0,0,1,1,174.56V136.767" transform="translate(-0.139 -18.315)" fill="none" stroke="#60e07e" stroke-linecap="round" stroke-linejoin="round" stroke-width="2"/>
        <path id="Path_765" data-name="Path 765" d="M12.19,115.428V23.947A11.757,11.757,0,0,1,23.947,12.19H35.92" transform="translate(-1.691 -1.691)" fill="none" stroke="#60e07e" stroke-linecap="round" stroke-linejoin="round" stroke-width="2"/>
        <path id="Path_766" data-name="Path 766" d="M110.967,179.451c0,4.219-3.122,8.722-6.436,10.89a33.372,33.372,0,0,1-11.37,4.723c-12.035,2.332-21.42.6-33.511,1.612-3.662.306-6.092.947-8.949,3.275-3.915,3.19-2.946,9.356-.106,12.586,3.5,3.988,10.16,4.582,14.957,1.9,3.752-2.094,6.033-7.4,2.69-10.911-4.137-4.344-11.019-3.051-16.366-2.94-4.272.09-8.548.1-12.82.176" transform="translate(-5.417 -24.888)" fill="none" stroke="#60e07e" stroke-linecap="round" stroke-linejoin="round" stroke-width="2"/>
        <path id="Path_767" data-name="Path 767" d="M107.223,206.845v7.392A13.223,13.223,0,0,1,94,227.46H14.224A13.224,13.224,0,0,1,1,214.237V204.2H35.349" transform="translate(-0.139 -28.321)" fill="none" stroke="#60e07e" stroke-linecap="round" stroke-linejoin="round" stroke-width="2"/>
      </g>
    </g>
  </g>
</svg>
