<svg xmlns="http://www.w3.org/2000/svg" xmlns:xlink="http://www.w3.org/1999/xlink" width="200" height="200" viewBox="0 0 200 200">
  <defs>
    <clipPath id="clip-path">
      <rect id="Rectangle_675" data-name="Rectangle 675" width="162.252" height="200" fill="none"/>
    </clipPath>
  </defs>
  <g id="Group_239" data-name="Group 239" transform="translate(-4876 -2396)">
    <rect id="Rectangle_674" data-name="Rectangle 674" width="200" height="200" transform="translate(4876 2396)" fill="none"/>
    <g id="Group_238" data-name="Group 238" transform="translate(4895 2396)">
      <g id="Group_237" data-name="Group 237" clip-path="url(#clip-path)">
        <path id="Path_747" data-name="Path 747" d="M142.1,30.61l2.614-24.84S116.3,14.639,70.01,7.456C25.511.55,2.872,1.007,2.872,1.007s6.643,60.687,5.7,98.588C7.467,144.238,1,199.119,1,199.119s51.746-6.347,73.869-5.963c36.987.643,75.741,5.963,75.741,5.963s-10.212-20.591-8.51-54.91" transform="translate(-0.059 -0.059)" fill="none" stroke="#60e07e" stroke-linecap="round" stroke-linejoin="round" stroke-width="2"/>
        <path id="Path_748" data-name="Path 748" d="M71.933,177.739S91.559,148.2,91.9,129.724c.455-24.355-6.159-31.982,6.19-55.026,15.456-28.841,67.487-53.344,67.487-53.344S151.573,60.4,154.306,70.133c1.759,6.265-12.875,3.151-12.875,3.151a46.394,46.394,0,0,0,.619,10.282c.728,4.943,3.632,13.43,3.632,13.43l-10.437.009,5.964,7.083s-5.286,12.454-16.8,19.687c-10.053,6.315-17.817,7.213-17.817,7.213S95.734,96.377,141.619,51.54" transform="translate(-4.27 -1.267)" fill="none" stroke="#60e07e" stroke-linecap="round" stroke-linejoin="round" stroke-width="2"/>
      </g>
    </g>
  </g>
</svg>
