<svg id="Component_4_1" data-name="Component 4 – 1" xmlns="http://www.w3.org/2000/svg" xmlns:xlink="http://www.w3.org/1999/xlink" width="121.525" height="30.422" viewBox="0 0 121.525 30.422">
  <defs>
    <clipPath id="clip-path">
      <rect id="Rectangle_4" data-name="Rectangle 4" width="121.525" height="30.422" fill="#fff"/>
    </clipPath>
    <clipPath id="clip-path-2">
      <rect id="Rectangle_4-2" data-name="Rectangle 4" width="121.525" height="30.422" fill="#005329"/>
    </clipPath>
  </defs>
  <g id="Group_26" data-name="Group 26">
    <g id="Group_27" data-name="Group 27">
      <path id="Path_8" data-name="Path 8" d="M266.137,45.265h4.319V25.6h-4.319Z" transform="translate(-203.189 -19.544)" fill="#fff"/>
      <g id="Group_7" data-name="Group 7">
        <g id="Group_6" data-name="Group 6" clip-path="url(#clip-path)">
          <path id="Path_9" data-name="Path 9" d="M168.833,24.035a10.186,10.186,0,1,0,10.188,10.186,10.186,10.186,0,0,0-10.188-10.186m0,16.39a6.2,6.2,0,1,1,6.2-6.2,6.206,6.206,0,0,1-6.2,6.2" transform="translate(-121.121 -18.35)" fill="#fff"/>
          <path id="Path_10" data-name="Path 10" d="M96.019,0l-.105.154L89.186,9.581h2.777V19.833a6.441,6.441,0,0,0,.75,3.2,4.89,4.89,0,0,0,2.128,2.005,7.268,7.268,0,0,0,3.25.678h3.632v-3.7H98.6a2.505,2.505,0,0,1-1.886-.717,2.844,2.844,0,0,1-.7-2.086V9.581h5.743V6.055H96.019Z" transform="translate(-68.091)" fill="#fff"/>
          <path id="Path_11" data-name="Path 11" d="M296.651,25.5a3,3,0,1,0,3.032,2.98,2.973,2.973,0,0,0-3.032-2.98" transform="translate(-224.171 -19.47)" fill="#fff"/>
          <path id="Path_12" data-name="Path 12" d="M15.17,25.6H1.069l-.007,3.527h9.971L0,45.264H17.933V41.569H7.222L18.094,25.6Z" transform="translate(0 -19.544)" fill="#fff"/>
          <path id="Path_13" data-name="Path 13" d="M508.591,44.18a.781.781,0,0,0-.291-.283.733.733,0,0,0-.385-.105.779.779,0,0,0-.4.105.807.807,0,0,0-.291.283.743.743,0,0,0-.105.391.779.779,0,0,0,.105.4.789.789,0,0,0,.687.391.719.719,0,0,0,.385-.107.787.787,0,0,0,.291-.288.729.729,0,0,0,.109-.393.715.715,0,0,0-.109-.391" transform="translate(-387.175 -33.434)" fill="#fff"/>
          <rect id="Rectangle_3" data-name="Rectangle 3" width="1.455" height="5.869" transform="translate(101.212 6.055)" fill="#fff"/>
          <path id="Path_14" data-name="Path 14" d="M449.046,29.407,446.139,25.6h-1.493v5.869H446.1V27.629l2.914,3.837h1.493V25.6h-1.465Z" transform="translate(-339.476 -19.543)" fill="#fff"/>
          <path id="Path_15" data-name="Path 15" d="M479.379,27.53a.291.291,0,0,1,.024-.033,1.857,1.857,0,0,1,.2-.263c.028-.026.049-.053.074-.072a1.716,1.716,0,0,1,.284-.219.086.086,0,0,1,.024-.015c.011-.007.025-.009.032-.016a1.659,1.659,0,0,1,1.83.112.65.65,0,0,1,.063.051,1.929,1.929,0,0,1,.193.182.223.223,0,0,0,.024.021l.961-.885a3.048,3.048,0,0,0-1.031-.759,3.31,3.31,0,0,0-1.217-.228,3.705,3.705,0,0,0-.8.091c-.06.016-.119.037-.179.055-.091.028-.179.068-.27.1a3,3,0,0,0,0,5.462c.091.035.179.075.27.1.06.021.119.039.179.056a3.6,3.6,0,0,0,.8.091,3.343,3.343,0,0,0,1.217-.226,3.044,3.044,0,0,0,1.031-.759l-.961-.887c-.007.009-.017.014-.024.021a2.044,2.044,0,0,1-.189.18c-.025.016-.042.037-.067.053a1.652,1.652,0,0,1-1.83.112c-.007-.007-.021-.007-.032-.014a.168.168,0,0,1-.024-.017,1.547,1.547,0,0,1-.28-.218c-.028-.022-.049-.049-.077-.075a1.649,1.649,0,0,1-.2-.26c-.007-.014-.018-.021-.024-.035a.291.291,0,0,1-.025-.053,1.638,1.638,0,0,1,0-1.606.291.291,0,0,1,.025-.053" transform="translate(-364.814 -19.397)" fill="#fff"/>
          <path id="Path_16" data-name="Path 16" d="M346.452,25.6h-.07L341.747,36.94,337.168,25.6h-4.537l6.844,16.893-3.051,7.474h4.544l9.96-24.368Z" transform="translate(-253.956 -19.544)" fill="#fff"/>
        </g>
      </g>
    </g>
  </g>
  <g id="Group_28" data-name="Group 28" opacity="0">
    <g id="Group_27-2" data-name="Group 27">
      <path id="Path_8-2" data-name="Path 8" d="M266.137,45.265h4.319V25.6h-4.319Z" transform="translate(-203.189 -19.544)" fill="#005329"/>
      <g id="Group_7-2" data-name="Group 7">
        <g id="Group_6-2" data-name="Group 6" clip-path="url(#clip-path-2)">
          <path id="Path_9-2" data-name="Path 9" d="M168.833,24.035a10.186,10.186,0,1,0,10.188,10.186,10.186,10.186,0,0,0-10.188-10.186m0,16.39a6.2,6.2,0,1,1,6.2-6.2,6.206,6.206,0,0,1-6.2,6.2" transform="translate(-121.121 -18.35)" fill="#005329"/>
          <path id="Path_10-2" data-name="Path 10" d="M96.019,0l-.105.154L89.186,9.581h2.777V19.833a6.441,6.441,0,0,0,.75,3.2,4.89,4.89,0,0,0,2.128,2.005,7.268,7.268,0,0,0,3.25.678h3.632v-3.7H98.6a2.505,2.505,0,0,1-1.886-.717,2.844,2.844,0,0,1-.7-2.086V9.581h5.743V6.055H96.019Z" transform="translate(-68.091)" fill="#005329"/>
          <path id="Path_11-2" data-name="Path 11" d="M296.651,25.5a3,3,0,1,0,3.032,2.98,2.973,2.973,0,0,0-3.032-2.98" transform="translate(-224.171 -19.47)" fill="#005329"/>
          <path id="Path_12-2" data-name="Path 12" d="M15.17,25.6H1.069l-.007,3.527h9.971L0,45.264H17.933V41.569H7.222L18.094,25.6Z" transform="translate(0 -19.544)" fill="#005329"/>
          <path id="Path_13-2" data-name="Path 13" d="M508.591,44.18a.781.781,0,0,0-.291-.283.733.733,0,0,0-.385-.105.779.779,0,0,0-.4.105.807.807,0,0,0-.291.283.743.743,0,0,0-.105.391.779.779,0,0,0,.105.4.789.789,0,0,0,.687.391.719.719,0,0,0,.385-.107.787.787,0,0,0,.291-.288.729.729,0,0,0,.109-.393.715.715,0,0,0-.109-.391" transform="translate(-387.175 -33.434)" fill="#005329"/>
          <rect id="Rectangle_3-2" data-name="Rectangle 3" width="1.455" height="5.869" transform="translate(101.212 6.055)" fill="#005329"/>
          <path id="Path_14-2" data-name="Path 14" d="M449.046,29.407,446.139,25.6h-1.493v5.869H446.1V27.629l2.914,3.837h1.493V25.6h-1.465Z" transform="translate(-339.476 -19.543)" fill="#005329"/>
          <path id="Path_15-2" data-name="Path 15" d="M479.379,27.53a.291.291,0,0,1,.024-.033,1.857,1.857,0,0,1,.2-.263c.028-.026.049-.053.074-.072a1.716,1.716,0,0,1,.284-.219.086.086,0,0,1,.024-.015c.011-.007.025-.009.032-.016a1.659,1.659,0,0,1,1.83.112.65.65,0,0,1,.063.051,1.929,1.929,0,0,1,.193.182.223.223,0,0,0,.024.021l.961-.885a3.048,3.048,0,0,0-1.031-.759,3.31,3.31,0,0,0-1.217-.228,3.705,3.705,0,0,0-.8.091c-.06.016-.119.037-.179.055-.091.028-.179.068-.27.1a3,3,0,0,0,0,5.462c.091.035.179.075.27.1.06.021.119.039.179.056a3.6,3.6,0,0,0,.8.091,3.343,3.343,0,0,0,1.217-.226,3.044,3.044,0,0,0,1.031-.759l-.961-.887c-.007.009-.017.014-.024.021a2.044,2.044,0,0,1-.189.18c-.025.016-.042.037-.067.053a1.652,1.652,0,0,1-1.83.112c-.007-.007-.021-.007-.032-.014a.168.168,0,0,1-.024-.017,1.547,1.547,0,0,1-.28-.218c-.028-.022-.049-.049-.077-.075a1.649,1.649,0,0,1-.2-.26c-.007-.014-.018-.021-.024-.035a.291.291,0,0,1-.025-.053,1.638,1.638,0,0,1,0-1.606.291.291,0,0,1,.025-.053" transform="translate(-364.814 -19.397)" fill="#005329"/>
          <path id="Path_16-2" data-name="Path 16" d="M346.452,25.6h-.07L341.747,36.94,337.168,25.6h-4.537l6.844,16.893-3.051,7.474h4.544l9.96-24.368Z" transform="translate(-253.956 -19.544)" fill="#005329"/>
        </g>
      </g>
    </g>
  </g>
</svg>
